<?xml version="1.0" encoding="UTF-8"?>
<svg viewBox="0 0 1400 650" xmlns="http://www.w3.org/2000/svg">
    <!-- Gradients -->
    <defs>
        <linearGradient id="bgGradient" x1="0%" y1="0%" x2="100%" y2="100%">
            <stop offset="0%" style="stop-color:#2f5597;stop-opacity:0.05"/>
            <stop offset="100%" style="stop-color:#2f5597;stop-opacity:0.02"/>
        </linearGradient>

        <linearGradient id="accentGradient" x1="0%" y1="0%" x2="100%" y2="0%">
            <stop offset="0%" style="stop-color:#2f5597;stop-opacity:0.2"/>
            <stop offset="100%" style="stop-color:#2f5597;stop-opacity:0.1"/>
        </linearGradient>
    </defs>

    <!-- Background -->
    <rect width="1400" height="650" fill="url(#bgGradient)"/>

    <!-- Main Design Group -->
    <g transform="translate(150, 100)">
        <!-- Abstract Document Stack -->
        <g transform="translate(50, 50)">
            <rect x="0" y="10" width="300" height="400" rx="15" fill="white" stroke="#2f5597" stroke-width="2" stroke-opacity="0.1"/>
            <rect x="20" y="5" width="300" height="400" rx="15" fill="white" stroke="#2f5597" stroke-width="2" stroke-opacity="0.15"/>
            <rect x="40" y="0" width="300" height="400" rx="15" fill="white" stroke="#2f5597" stroke-width="2" stroke-opacity="0.2"/>

            <!-- Document Lines -->
            <g transform="translate(80, 50)">
                <rect width="180" height="8" rx="4" fill="#2f5597" fill-opacity="0.1"/>
                <rect y="30" width="220" height="8" rx="4" fill="#2f5597" fill-opacity="0.1"/>
                <rect y="60" width="160" height="8" rx="4" fill="#2f5597" fill-opacity="0.1"/>

                <!-- Dollar Amount Section -->
                <rect y="100" width="120" height="40" rx="8" fill="url(#accentGradient)"/>
                <text x="20" y="125" font-family="monospace" fill="#2f5597" font-size="20">$</text>

                <!-- Additional Details -->
                <rect y="160" width="200" height="8" rx="4" fill="#2f5597" fill-opacity="0.1"/>
                <rect y="180" width="180" height="8" rx="4" fill="#2f5597" fill-opacity="0.1"/>
                <rect y="200" width="160" height="8" rx="4" fill="#2f5597" fill-opacity="0.1"/>
            </g>
        </g>

        <!-- Abstract API Flow Lines -->
        <g transform="translate(400, 50)">
            <path d="M50,100 C150,100 200,150 300,150 C400,150 450,100 550,100"
                  fill="none" stroke="#2f5597" stroke-width="3" stroke-opacity="0.2"/>
            <path d="M50,200 C150,200 200,250 300,250 C400,250 450,200 550,200"
                  fill="none" stroke="#2f5597" stroke-width="3" stroke-opacity="0.2"/>
            <path d="M50,300 C150,300 200,350 300,350 C400,350 450,300 550,300"
                  fill="none" stroke="#2f5597" stroke-width="3" stroke-opacity="0.2"/>

            <!-- Connection Dots -->
            <circle cx="50" cy="100" r="8" fill="#2f5597" fill-opacity="0.2"/>
            <circle cx="300" cy="150" r="8" fill="#2f5597" fill-opacity="0.2"/>
            <circle cx="550" cy="100" r="8" fill="#2f5597" fill-opacity="0.2"/>

            <circle cx="50" cy="200" r="8" fill="#2f5597" fill-opacity="0.2"/>
            <circle cx="300" cy="250" r="8" fill="#2f5597" fill-opacity="0.2"/>
            <circle cx="550" cy="200" r="8" fill="#2f5597" fill-opacity="0.2"/>

            <circle cx="50" cy="300" r="8" fill="#2f5597" fill-opacity="0.2"/>
            <circle cx="300" cy="350" r="8" fill="#2f5597" fill-opacity="0.2"/>
            <circle cx="550" cy="300" r="8" fill="#2f5597" fill-opacity="0.2"/>
        </g>

        <!-- Decorative Elements -->
        <g transform="translate(900, 100)">
            <circle cx="50" cy="50" r="40" fill="#2f5597" fill-opacity="0.1"/>
            <circle cx="150" cy="150" r="60" fill="#2f5597" fill-opacity="0.05"/>
            <circle cx="200" cy="50" r="30" fill="#2f5597" fill-opacity="0.08"/>
        </g>
    </g>
</svg>